# xmcd
#
# Track frame offsets:
#	150
#	14977
#	25112
#	34512
#	45470
#	55527
#	68575
#	80365
#	93032
# Disc length: 1422 seconds
# Revision: 3
# Processed by: cddbd v1.5.1PL2 Copyright (c) Steve Scherf et al.
#
# Submitted via: libkcddb 0.20
#
DISCID=5e058c09
DTITLE=George Jones - George Jones At His Best
DYEAR=1900
DGENRE=Country
TTITLE0=He Stopped Loving Her Today
TTITLE1=Your Angel Steps Out Of Heaven
TTITLE2=Am I That Easy To Forget
TTITLE3=Ruby, Don't Take Your Love To Town
TTITLE4=A Day In The Life Of A Fool
TTITLE5=I Threw Away The Rose
TTITLE6=There Goes My Everything
TTITLE7=Saginaw Michigan
TTITLE8=That Heart Belongs To Me
EXTD=
EXTT0=HE STOPPED LOVING HER TODAY
EXTT1=
EXTT2=
EXTT3=
EXTT4=
EXTT5=
EXTT6=
EXTT7=
EXTT8=
PLAYORDER=
